<mxfile host="app.diagrams.net" modified="2022-12-21T16:13:07.590Z" agent="5.0 (Windows)" etag="SX3cSOpWPAqm_ClP7JIi" version="20.7.4" type="github">
  <diagram name="Page-1" id="c4acf3e9-155e-7222-9cf6-157b1a14988f">
    <mxGraphModel dx="2100" dy="2216" grid="1" gridSize="10" guides="1" tooltips="1" connect="1" arrows="1" fold="1" page="1" pageScale="1" pageWidth="850" pageHeight="1100" background="none" math="0" shadow="0">
      <root>
        <mxCell id="0" />
        <mxCell id="1" parent="0" />
        <mxCell id="gz-ELiUKS7A_Bemjx15V-2" value="AsignacionCondicionesPago" style="swimlane;fontStyle=1;align=center;verticalAlign=top;childLayout=stackLayout;horizontal=1;startSize=26;horizontalStack=0;resizeParent=1;resizeParentMax=0;resizeLast=0;collapsible=1;marginBottom=0;" vertex="1" parent="1">
          <mxGeometry x="10" y="-450" width="200" height="562" as="geometry" />
        </mxCell>
        <mxCell id="gz-ELiUKS7A_Bemjx15V-3" value="+ Edad: Entero" style="text;strokeColor=none;fillColor=none;align=left;verticalAlign=top;spacingLeft=4;spacingRight=4;overflow=hidden;rotatable=0;points=[[0,0.5],[1,0.5]];portConstraint=eastwest;" vertex="1" parent="gz-ELiUKS7A_Bemjx15V-2">
          <mxGeometry y="26" width="200" height="26" as="geometry" />
        </mxCell>
        <mxCell id="gz-ELiUKS7A_Bemjx15V-4" value="" style="line;strokeWidth=1;fillColor=none;align=left;verticalAlign=middle;spacingTop=-1;spacingLeft=3;spacingRight=3;rotatable=0;labelPosition=right;points=[];portConstraint=eastwest;strokeColor=inherit;" vertex="1" parent="gz-ELiUKS7A_Bemjx15V-2">
          <mxGeometry y="52" width="200" height="8" as="geometry" />
        </mxCell>
        <mxCell id="gz-ELiUKS7A_Bemjx15V-5" value="+ Residencia: Bool" style="text;strokeColor=none;fillColor=none;align=left;verticalAlign=top;spacingLeft=4;spacingRight=4;overflow=hidden;rotatable=0;points=[[0,0.5],[1,0.5]];portConstraint=eastwest;" vertex="1" parent="gz-ELiUKS7A_Bemjx15V-2">
          <mxGeometry y="60" width="200" height="26" as="geometry" />
        </mxCell>
        <mxCell id="gz-ELiUKS7A_Bemjx15V-8" value="" style="line;strokeWidth=1;fillColor=none;align=left;verticalAlign=middle;spacingTop=-1;spacingLeft=3;spacingRight=3;rotatable=0;labelPosition=right;points=[];portConstraint=eastwest;strokeColor=inherit;" vertex="1" parent="gz-ELiUKS7A_Bemjx15V-2">
          <mxGeometry y="86" width="200" height="8" as="geometry" />
        </mxCell>
        <mxCell id="gz-ELiUKS7A_Bemjx15V-7" value="+ Email: Bool&#xa;" style="text;strokeColor=none;fillColor=none;align=left;verticalAlign=top;spacingLeft=4;spacingRight=4;overflow=hidden;rotatable=0;points=[[0,0.5],[1,0.5]];portConstraint=eastwest;" vertex="1" parent="gz-ELiUKS7A_Bemjx15V-2">
          <mxGeometry y="94" width="200" height="26" as="geometry" />
        </mxCell>
        <mxCell id="gz-ELiUKS7A_Bemjx15V-10" value="" style="line;strokeWidth=1;fillColor=none;align=left;verticalAlign=middle;spacingTop=-1;spacingLeft=3;spacingRight=3;rotatable=0;labelPosition=right;points=[];portConstraint=eastwest;strokeColor=inherit;" vertex="1" parent="gz-ELiUKS7A_Bemjx15V-2">
          <mxGeometry y="120" width="200" height="8" as="geometry" />
        </mxCell>
        <mxCell id="gz-ELiUKS7A_Bemjx15V-9" value="+ Domiciliada: Bool" style="text;strokeColor=none;fillColor=none;align=left;verticalAlign=top;spacingLeft=4;spacingRight=4;overflow=hidden;rotatable=0;points=[[0,0.5],[1,0.5]];portConstraint=eastwest;" vertex="1" parent="gz-ELiUKS7A_Bemjx15V-2">
          <mxGeometry y="128" width="200" height="26" as="geometry" />
        </mxCell>
        <mxCell id="gz-ELiUKS7A_Bemjx15V-12" value="" style="line;strokeWidth=1;fillColor=none;align=left;verticalAlign=middle;spacingTop=-1;spacingLeft=3;spacingRight=3;rotatable=0;labelPosition=right;points=[];portConstraint=eastwest;strokeColor=inherit;" vertex="1" parent="gz-ELiUKS7A_Bemjx15V-2">
          <mxGeometry y="154" width="200" height="8" as="geometry" />
        </mxCell>
        <mxCell id="gz-ELiUKS7A_Bemjx15V-11" value="+ Semanas: Entero&#xa;" style="text;strokeColor=none;fillColor=none;align=left;verticalAlign=top;spacingLeft=4;spacingRight=4;overflow=hidden;rotatable=0;points=[[0,0.5],[1,0.5]];portConstraint=eastwest;" vertex="1" parent="gz-ELiUKS7A_Bemjx15V-2">
          <mxGeometry y="162" width="200" height="26" as="geometry" />
        </mxCell>
        <mxCell id="gz-ELiUKS7A_Bemjx15V-13" value="" style="line;strokeWidth=1;fillColor=none;align=left;verticalAlign=middle;spacingTop=-1;spacingLeft=3;spacingRight=3;rotatable=0;labelPosition=right;points=[];portConstraint=eastwest;strokeColor=inherit;" vertex="1" parent="gz-ELiUKS7A_Bemjx15V-2">
          <mxGeometry y="188" width="200" height="8" as="geometry" />
        </mxCell>
        <mxCell id="gz-ELiUKS7A_Bemjx15V-14" value="+ Pagos: Decimal&#xa;" style="text;strokeColor=none;fillColor=none;align=left;verticalAlign=top;spacingLeft=4;spacingRight=4;overflow=hidden;rotatable=0;points=[[0,0.5],[1,0.5]];portConstraint=eastwest;" vertex="1" parent="gz-ELiUKS7A_Bemjx15V-2">
          <mxGeometry y="196" width="200" height="26" as="geometry" />
        </mxCell>
        <mxCell id="gz-ELiUKS7A_Bemjx15V-15" value="" style="line;strokeWidth=1;fillColor=none;align=left;verticalAlign=middle;spacingTop=-1;spacingLeft=3;spacingRight=3;rotatable=0;labelPosition=right;points=[];portConstraint=eastwest;strokeColor=inherit;" vertex="1" parent="gz-ELiUKS7A_Bemjx15V-2">
          <mxGeometry y="222" width="200" height="8" as="geometry" />
        </mxCell>
        <mxCell id="gz-ELiUKS7A_Bemjx15V-17" value="+ CostoEntrega: Decimal&#xa;" style="text;strokeColor=none;fillColor=none;align=left;verticalAlign=top;spacingLeft=4;spacingRight=4;overflow=hidden;rotatable=0;points=[[0,0.5],[1,0.5]];portConstraint=eastwest;" vertex="1" parent="gz-ELiUKS7A_Bemjx15V-2">
          <mxGeometry y="230" width="200" height="26" as="geometry" />
        </mxCell>
        <mxCell id="gz-ELiUKS7A_Bemjx15V-18" value="" style="line;strokeWidth=1;fillColor=none;align=left;verticalAlign=middle;spacingTop=-1;spacingLeft=3;spacingRight=3;rotatable=0;labelPosition=right;points=[];portConstraint=eastwest;strokeColor=inherit;" vertex="1" parent="gz-ELiUKS7A_Bemjx15V-2">
          <mxGeometry y="256" width="200" height="8" as="geometry" />
        </mxCell>
        <mxCell id="gz-ELiUKS7A_Bemjx15V-20" value="+ CostoComision: Decimal" style="text;strokeColor=none;fillColor=none;align=left;verticalAlign=top;spacingLeft=4;spacingRight=4;overflow=hidden;rotatable=0;points=[[0,0.5],[1,0.5]];portConstraint=eastwest;" vertex="1" parent="gz-ELiUKS7A_Bemjx15V-2">
          <mxGeometry y="264" width="200" height="26" as="geometry" />
        </mxCell>
        <mxCell id="gz-ELiUKS7A_Bemjx15V-21" value="" style="line;strokeWidth=1;fillColor=none;align=left;verticalAlign=middle;spacingTop=-1;spacingLeft=3;spacingRight=3;rotatable=0;labelPosition=right;points=[];portConstraint=eastwest;strokeColor=inherit;" vertex="1" parent="gz-ELiUKS7A_Bemjx15V-2">
          <mxGeometry y="290" width="200" height="8" as="geometry" />
        </mxCell>
        <mxCell id="gz-ELiUKS7A_Bemjx15V-23" value="+ Ingresos: Decimal" style="text;strokeColor=none;fillColor=none;align=left;verticalAlign=top;spacingLeft=4;spacingRight=4;overflow=hidden;rotatable=0;points=[[0,0.5],[1,0.5]];portConstraint=eastwest;" vertex="1" parent="gz-ELiUKS7A_Bemjx15V-2">
          <mxGeometry y="298" width="200" height="26" as="geometry" />
        </mxCell>
        <mxCell id="gz-ELiUKS7A_Bemjx15V-24" value="" style="line;strokeWidth=1;fillColor=none;align=left;verticalAlign=middle;spacingTop=-1;spacingLeft=3;spacingRight=3;rotatable=0;labelPosition=right;points=[];portConstraint=eastwest;strokeColor=inherit;" vertex="1" parent="gz-ELiUKS7A_Bemjx15V-2">
          <mxGeometry y="324" width="200" height="8" as="geometry" />
        </mxCell>
        <mxCell id="gz-ELiUKS7A_Bemjx15V-26" value="+ Mensualidad: Decimal&#xa;" style="text;strokeColor=none;fillColor=none;align=left;verticalAlign=top;spacingLeft=4;spacingRight=4;overflow=hidden;rotatable=0;points=[[0,0.5],[1,0.5]];portConstraint=eastwest;" vertex="1" parent="gz-ELiUKS7A_Bemjx15V-2">
          <mxGeometry y="332" width="200" height="26" as="geometry" />
        </mxCell>
        <mxCell id="gz-ELiUKS7A_Bemjx15V-28" value="" style="line;strokeWidth=1;fillColor=none;align=left;verticalAlign=middle;spacingTop=-1;spacingLeft=3;spacingRight=3;rotatable=0;labelPosition=right;points=[];portConstraint=eastwest;strokeColor=inherit;" vertex="1" parent="gz-ELiUKS7A_Bemjx15V-2">
          <mxGeometry y="358" width="200" height="8" as="geometry" />
        </mxCell>
        <mxCell id="gz-ELiUKS7A_Bemjx15V-29" value="+ TipoGenero: String" style="text;strokeColor=none;fillColor=none;align=left;verticalAlign=top;spacingLeft=4;spacingRight=4;overflow=hidden;rotatable=0;points=[[0,0.5],[1,0.5]];portConstraint=eastwest;" vertex="1" parent="gz-ELiUKS7A_Bemjx15V-2">
          <mxGeometry y="366" width="200" height="26" as="geometry" />
        </mxCell>
        <mxCell id="gz-ELiUKS7A_Bemjx15V-30" value="" style="line;strokeWidth=1;fillColor=none;align=left;verticalAlign=middle;spacingTop=-1;spacingLeft=3;spacingRight=3;rotatable=0;labelPosition=right;points=[];portConstraint=eastwest;strokeColor=inherit;" vertex="1" parent="gz-ELiUKS7A_Bemjx15V-2">
          <mxGeometry y="392" width="200" height="8" as="geometry" />
        </mxCell>
        <mxCell id="gz-ELiUKS7A_Bemjx15V-31" value="+ TipoPersona: String&#xa;" style="text;strokeColor=none;fillColor=none;align=left;verticalAlign=top;spacingLeft=4;spacingRight=4;overflow=hidden;rotatable=0;points=[[0,0.5],[1,0.5]];portConstraint=eastwest;" vertex="1" parent="gz-ELiUKS7A_Bemjx15V-2">
          <mxGeometry y="400" width="200" height="26" as="geometry" />
        </mxCell>
        <mxCell id="gz-ELiUKS7A_Bemjx15V-32" value="" style="line;strokeWidth=1;fillColor=none;align=left;verticalAlign=middle;spacingTop=-1;spacingLeft=3;spacingRight=3;rotatable=0;labelPosition=right;points=[];portConstraint=eastwest;strokeColor=inherit;" vertex="1" parent="gz-ELiUKS7A_Bemjx15V-2">
          <mxGeometry y="426" width="200" height="8" as="geometry" />
        </mxCell>
        <mxCell id="gz-ELiUKS7A_Bemjx15V-33" value="+ MontoLabs: String" style="text;strokeColor=none;fillColor=none;align=left;verticalAlign=top;spacingLeft=4;spacingRight=4;overflow=hidden;rotatable=0;points=[[0,0.5],[1,0.5]];portConstraint=eastwest;" vertex="1" parent="gz-ELiUKS7A_Bemjx15V-2">
          <mxGeometry y="434" width="200" height="26" as="geometry" />
        </mxCell>
        <mxCell id="gz-ELiUKS7A_Bemjx15V-35" value="" style="line;strokeWidth=1;fillColor=none;align=left;verticalAlign=middle;spacingTop=-1;spacingLeft=3;spacingRight=3;rotatable=0;labelPosition=right;points=[];portConstraint=eastwest;strokeColor=inherit;" vertex="1" parent="gz-ELiUKS7A_Bemjx15V-2">
          <mxGeometry y="460" width="200" height="8" as="geometry" />
        </mxCell>
        <mxCell id="gz-ELiUKS7A_Bemjx15V-36" value="+ OrigenVenta: String&#xa;" style="text;strokeColor=none;fillColor=none;align=left;verticalAlign=top;spacingLeft=4;spacingRight=4;overflow=hidden;rotatable=0;points=[[0,0.5],[1,0.5]];portConstraint=eastwest;" vertex="1" parent="gz-ELiUKS7A_Bemjx15V-2">
          <mxGeometry y="468" width="200" height="26" as="geometry" />
        </mxCell>
        <mxCell id="gz-ELiUKS7A_Bemjx15V-37" value="" style="line;strokeWidth=1;fillColor=none;align=left;verticalAlign=middle;spacingTop=-1;spacingLeft=3;spacingRight=3;rotatable=0;labelPosition=right;points=[];portConstraint=eastwest;strokeColor=inherit;" vertex="1" parent="gz-ELiUKS7A_Bemjx15V-2">
          <mxGeometry y="494" width="200" height="8" as="geometry" />
        </mxCell>
        <mxCell id="gz-ELiUKS7A_Bemjx15V-38" value="+ Ocupacion: String" style="text;strokeColor=none;fillColor=none;align=left;verticalAlign=top;spacingLeft=4;spacingRight=4;overflow=hidden;rotatable=0;points=[[0,0.5],[1,0.5]];portConstraint=eastwest;" vertex="1" parent="gz-ELiUKS7A_Bemjx15V-2">
          <mxGeometry y="502" width="200" height="26" as="geometry" />
        </mxCell>
        <mxCell id="gz-ELiUKS7A_Bemjx15V-39" value="" style="line;strokeWidth=1;fillColor=none;align=left;verticalAlign=middle;spacingTop=-1;spacingLeft=3;spacingRight=3;rotatable=0;labelPosition=right;points=[];portConstraint=eastwest;strokeColor=inherit;" vertex="1" parent="gz-ELiUKS7A_Bemjx15V-2">
          <mxGeometry y="528" width="200" height="8" as="geometry" />
        </mxCell>
        <mxCell id="gz-ELiUKS7A_Bemjx15V-40" value="+ TipoEstado: String" style="text;strokeColor=none;fillColor=none;align=left;verticalAlign=top;spacingLeft=4;spacingRight=4;overflow=hidden;rotatable=0;points=[[0,0.5],[1,0.5]];portConstraint=eastwest;" vertex="1" parent="gz-ELiUKS7A_Bemjx15V-2">
          <mxGeometry y="536" width="200" height="26" as="geometry" />
        </mxCell>
        <mxCell id="gz-ELiUKS7A_Bemjx15V-41" value="Autofin.Models" style="shape=folder;fontStyle=1;spacingTop=10;tabWidth=40;tabHeight=14;tabPosition=left;html=1;" vertex="1" parent="1">
          <mxGeometry x="10" y="-500" width="200" height="40" as="geometry" />
        </mxCell>
        <mxCell id="gz-ELiUKS7A_Bemjx15V-42" value="Autofin.Controllers" style="shape=folder;fontStyle=1;spacingTop=10;tabWidth=40;tabHeight=14;tabPosition=left;html=1;" vertex="1" parent="1">
          <mxGeometry x="310" y="-500" width="260" height="40" as="geometry" />
        </mxCell>
        <mxCell id="gz-ELiUKS7A_Bemjx15V-43" value="AsignacionCondicionesPagoController" style="swimlane;fontStyle=1;align=center;verticalAlign=top;childLayout=stackLayout;horizontal=1;startSize=26;horizontalStack=0;resizeParent=1;resizeParentMax=0;resizeLast=0;collapsible=1;marginBottom=0;" vertex="1" parent="1">
          <mxGeometry x="310" y="-450" width="260" height="120" as="geometry" />
        </mxCell>
        <mxCell id="gz-ELiUKS7A_Bemjx15V-44" value="+ CalcularCode(): String" style="text;strokeColor=none;fillColor=none;align=left;verticalAlign=top;spacingLeft=4;spacingRight=4;overflow=hidden;rotatable=0;points=[[0,0.5],[1,0.5]];portConstraint=eastwest;" vertex="1" parent="gz-ELiUKS7A_Bemjx15V-43">
          <mxGeometry y="26" width="260" height="26" as="geometry" />
        </mxCell>
        <mxCell id="gz-ELiUKS7A_Bemjx15V-45" value="" style="line;strokeWidth=1;fillColor=none;align=left;verticalAlign=middle;spacingTop=-1;spacingLeft=3;spacingRight=3;rotatable=0;labelPosition=right;points=[];portConstraint=eastwest;strokeColor=inherit;" vertex="1" parent="gz-ELiUKS7A_Bemjx15V-43">
          <mxGeometry y="52" width="260" height="8" as="geometry" />
        </mxCell>
        <mxCell id="gz-ELiUKS7A_Bemjx15V-46" value="+ CalcularEscenario(): String" style="text;strokeColor=none;fillColor=none;align=left;verticalAlign=top;spacingLeft=4;spacingRight=4;overflow=hidden;rotatable=0;points=[[0,0.5],[1,0.5]];portConstraint=eastwest;" vertex="1" parent="gz-ELiUKS7A_Bemjx15V-43">
          <mxGeometry y="60" width="260" height="26" as="geometry" />
        </mxCell>
        <mxCell id="gz-ELiUKS7A_Bemjx15V-47" value="" style="line;strokeWidth=1;fillColor=none;align=left;verticalAlign=middle;spacingTop=-1;spacingLeft=3;spacingRight=3;rotatable=0;labelPosition=right;points=[];portConstraint=eastwest;strokeColor=inherit;" vertex="1" parent="gz-ELiUKS7A_Bemjx15V-43">
          <mxGeometry y="86" width="260" height="8" as="geometry" />
        </mxCell>
        <mxCell id="gz-ELiUKS7A_Bemjx15V-48" value="+ CalcularGrafica(): List&lt;Decimal&gt;" style="text;strokeColor=none;fillColor=none;align=left;verticalAlign=top;spacingLeft=4;spacingRight=4;overflow=hidden;rotatable=0;points=[[0,0.5],[1,0.5]];portConstraint=eastwest;" vertex="1" parent="gz-ELiUKS7A_Bemjx15V-43">
          <mxGeometry y="94" width="260" height="26" as="geometry" />
        </mxCell>
        <mxCell id="gz-ELiUKS7A_Bemjx15V-49" value="Autofin.Service" style="shape=folder;fontStyle=1;spacingTop=10;tabWidth=40;tabHeight=14;tabPosition=left;html=1;" vertex="1" parent="1">
          <mxGeometry x="670" y="-500" width="220" height="40" as="geometry" />
        </mxCell>
        <mxCell id="gz-ELiUKS7A_Bemjx15V-50" value="AsignacionCondicionesPagoService&#xa;" style="swimlane;fontStyle=1;align=center;verticalAlign=top;childLayout=stackLayout;horizontal=1;startSize=26;horizontalStack=0;resizeParent=1;resizeParentMax=0;resizeLast=0;collapsible=1;marginBottom=0;" vertex="1" parent="1">
          <mxGeometry x="670" y="-450" width="220" height="154" as="geometry" />
        </mxCell>
        <mxCell id="gz-ELiUKS7A_Bemjx15V-51" value="+ Code: String&#xa;" style="text;strokeColor=none;fillColor=none;align=left;verticalAlign=top;spacingLeft=4;spacingRight=4;overflow=hidden;rotatable=0;points=[[0,0.5],[1,0.5]];portConstraint=eastwest;" vertex="1" parent="gz-ELiUKS7A_Bemjx15V-50">
          <mxGeometry y="26" width="220" height="26" as="geometry" />
        </mxCell>
        <mxCell id="gz-ELiUKS7A_Bemjx15V-52" value="" style="line;strokeWidth=1;fillColor=none;align=left;verticalAlign=middle;spacingTop=-1;spacingLeft=3;spacingRight=3;rotatable=0;labelPosition=right;points=[];portConstraint=eastwest;strokeColor=inherit;" vertex="1" parent="gz-ELiUKS7A_Bemjx15V-50">
          <mxGeometry y="52" width="220" height="8" as="geometry" />
        </mxCell>
        <mxCell id="gz-ELiUKS7A_Bemjx15V-53" value="+ Escenario: String&#xa;" style="text;strokeColor=none;fillColor=none;align=left;verticalAlign=top;spacingLeft=4;spacingRight=4;overflow=hidden;rotatable=0;points=[[0,0.5],[1,0.5]];portConstraint=eastwest;" vertex="1" parent="gz-ELiUKS7A_Bemjx15V-50">
          <mxGeometry y="60" width="220" height="26" as="geometry" />
        </mxCell>
        <mxCell id="gz-ELiUKS7A_Bemjx15V-54" value="" style="line;strokeWidth=1;fillColor=none;align=left;verticalAlign=middle;spacingTop=-1;spacingLeft=3;spacingRight=3;rotatable=0;labelPosition=right;points=[];portConstraint=eastwest;strokeColor=inherit;" vertex="1" parent="gz-ELiUKS7A_Bemjx15V-50">
          <mxGeometry y="86" width="220" height="8" as="geometry" />
        </mxCell>
        <mxCell id="gz-ELiUKS7A_Bemjx15V-55" value="+ Grafica: List&lt;Decimal&gt;&#xa;" style="text;strokeColor=none;fillColor=none;align=left;verticalAlign=top;spacingLeft=4;spacingRight=4;overflow=hidden;rotatable=0;points=[[0,0.5],[1,0.5]];portConstraint=eastwest;" vertex="1" parent="gz-ELiUKS7A_Bemjx15V-50">
          <mxGeometry y="94" width="220" height="26" as="geometry" />
        </mxCell>
        <mxCell id="gz-ELiUKS7A_Bemjx15V-56" value="" style="line;strokeWidth=1;fillColor=none;align=left;verticalAlign=middle;spacingTop=-1;spacingLeft=3;spacingRight=3;rotatable=0;labelPosition=right;points=[];portConstraint=eastwest;strokeColor=inherit;" vertex="1" parent="gz-ELiUKS7A_Bemjx15V-50">
          <mxGeometry y="120" width="220" height="8" as="geometry" />
        </mxCell>
        <mxCell id="gz-ELiUKS7A_Bemjx15V-57" value="+ ObtenerCoeficientes(AsignacionCondicionesPago): Void&#xa;" style="text;strokeColor=none;fillColor=none;align=left;verticalAlign=top;spacingLeft=4;spacingRight=4;overflow=hidden;rotatable=0;points=[[0,0.5],[1,0.5]];portConstraint=eastwest;fontSize=7;" vertex="1" parent="gz-ELiUKS7A_Bemjx15V-50">
          <mxGeometry y="128" width="220" height="26" as="geometry" />
        </mxCell>
        <mxCell id="gz-ELiUKS7A_Bemjx15V-58" value="" style="endArrow=classic;html=1;rounded=0;entryX=0;entryY=0;entryDx=0;entryDy=0;exitX=1;exitY=0;exitDx=0;exitDy=0;" edge="1" parent="1" source="gz-ELiUKS7A_Bemjx15V-2" target="gz-ELiUKS7A_Bemjx15V-43">
          <mxGeometry width="50" height="50" relative="1" as="geometry">
            <mxPoint x="210" y="-360" as="sourcePoint" />
            <mxPoint x="260" y="-410" as="targetPoint" />
          </mxGeometry>
        </mxCell>
        <mxCell id="gz-ELiUKS7A_Bemjx15V-59" value="" style="endArrow=classic;startArrow=classic;html=1;rounded=0;exitX=1;exitY=0;exitDx=0;exitDy=0;entryX=0;entryY=0;entryDx=0;entryDy=0;" edge="1" parent="1" source="gz-ELiUKS7A_Bemjx15V-43" target="gz-ELiUKS7A_Bemjx15V-50">
          <mxGeometry width="50" height="50" relative="1" as="geometry">
            <mxPoint x="570" y="-400" as="sourcePoint" />
            <mxPoint x="620" y="-450" as="targetPoint" />
          </mxGeometry>
        </mxCell>
        <mxCell id="gz-ELiUKS7A_Bemjx15V-61" value="Text" style="text;html=1;strokeColor=none;fillColor=none;align=center;verticalAlign=middle;whiteSpace=wrap;rounded=0;fontSize=7;" vertex="1" parent="1">
          <mxGeometry x="820" y="-360" width="60" height="30" as="geometry" />
        </mxCell>
        <mxCell id="gz-ELiUKS7A_Bemjx15V-62" value="&lt;div&gt;&lt;font style=&quot;font-size: 20px;&quot;&gt;Modelo 2 - Asignacion Condiciones Pago&lt;/font&gt;&lt;/div&gt;&lt;div&gt;&lt;font style=&quot;font-size: 20px;&quot;&gt;&lt;br&gt;&lt;/font&gt;&lt;/div&gt;" style="text;html=1;strokeColor=none;fillColor=none;align=center;verticalAlign=middle;whiteSpace=wrap;rounded=0;fontSize=7;" vertex="1" parent="1">
          <mxGeometry x="50" y="-540" width="720" height="20" as="geometry" />
        </mxCell>
      </root>
    </mxGraphModel>
  </diagram>
</mxfile>
